<?xml version="1.0" standalone="no"?>
<!DOCTYPE svg PUBLIC "-//W3C//DTD SVG 20010904//EN"
 "http://www.w3.org/TR/2001/REC-SVG-20010904/DTD/svg10.dtd">
<svg version="1.0" xmlns="http://www.w3.org/2000/svg"
 width="400.000000pt" height="400.000000pt" viewBox="0 0 400.000000 400.000000"
 preserveAspectRatio="xMidYMid meet">
<metadata>
Created by potrace 1.14, written by Peter Selinger 2001-2017
</metadata>
<g transform="translate(0.000000,400.000000) scale(0.100000,-0.100000)"
fill="#000000" stroke="none">
<path d="M1989 3922 c-10 -7 -19 -10 -19 -7 0 4 -7 0 -15 -9 -9 -8 -23 -12
-32 -9 -12 5 -14 3 -8 -7 6 -10 4 -12 -8 -7 -9 3 -18 0 -21 -9 -3 -8 -12 -14
-21 -14 -8 0 -32 -9 -52 -20 -20 -10 -41 -16 -46 -13 -6 3 -7 1 -4 -4 4 -6 0
-14 -9 -17 -10 -4 -13 -2 -7 6 4 7 -6 3 -21 -10 -16 -12 -32 -20 -36 -17 -4 3
-13 -2 -20 -10 -7 -8 -16 -12 -21 -9 -5 3 -9 0 -9 -6 0 -6 -4 -8 -10 -5 -5 3
-10 2 -10 -4 0 -6 -6 -8 -14 -5 -7 3 -16 -1 -19 -9 -3 -9 -21 -18 -39 -22 -18
-4 -35 -11 -38 -15 -3 -5 -14 -10 -25 -12 -11 -1 -26 -9 -33 -16 -8 -7 -18
-10 -23 -7 -5 4 -9 3 -9 -2 0 -11 -62 -38 -79 -35 -7 2 -10 -1 -6 -7 5 -9 -7
-13 -31 -10 -4 0 -10 -3 -13 -8 -7 -11 -93 -53 -108 -53 -6 0 -13 -5 -15 -10
-2 -6 -13 -12 -26 -13 -12 0 -22 -5 -22 -10 0 -4 -4 -5 -10 -2 -5 3 -10 1 -10
-5 0 -6 -4 -8 -10 -5 -5 3 -10 2 -10 -3 0 -6 -7 -13 -16 -16 -10 -4 -13 -2 -8
7 4 6 -1 5 -12 -4 -33 -27 -105 -60 -116 -53 -7 5 -8 2 -3 -6 6 -10 4 -12 -9
-7 -10 4 -15 3 -11 -3 5 -9 -19 -15 -28 -7 -2 1 -11 -6 -21 -16 -10 -9 -21
-15 -26 -12 -4 3 -13 -2 -20 -10 -7 -8 -16 -12 -21 -9 -5 3 -9 0 -9 -5 0 -6
-3 -10 -7 -9 -5 1 -23 -6 -40 -15 -18 -10 -33 -15 -33 -12 0 4 -7 -1 -16 -9
-8 -9 -20 -14 -25 -11 -5 4 -9 1 -9 -5 0 -7 -7 -9 -16 -6 -10 4 -13 2 -8 -6 5
-7 2 -9 -8 -5 -9 3 -25 -3 -36 -14 -12 -10 -30 -20 -40 -22 -11 -1 -32 -11
-47 -21 -18 -12 -25 -13 -20 -5 3 8 -1 5 -10 -6 -9 -11 -19 -19 -23 -18 -17 4
-77 -33 -76 -47 1 -8 2 -533 3 -1166 l1 -1150 43 -19 c41 -18 146 -66 282
-130 64 -30 245 -114 435 -202 41 -19 111 -52 155 -72 44 -21 96 -45 115 -54
19 -8 82 -38 140 -65 58 -27 130 -61 160 -75 123 -56 188 -86 249 -116 72 -35
87 -37 115 -16 11 8 26 15 33 15 7 0 41 13 75 29 35 16 93 43 131 60 37 17 69
31 71 31 3 0 33 13 68 29 35 16 101 45 148 66 47 20 101 43 120 52 19 8 44 19
55 23 11 5 55 25 98 44 42 20 79 36 82 36 2 0 33 13 67 29 35 15 97 43 138 61
41 18 108 47 148 66 41 19 76 34 78 34 3 0 37 15 77 33 40 18 98 44 129 58 41
17 58 30 59 44 1 19 0 150 -4 671 -1 140 -5 201 -13 200 -6 -1 -22 -9 -35 -17
-43 -27 -169 -90 -169 -85 0 3 -9 -2 -20 -12 -12 -9 -23 -16 -25 -15 -3 1 -32
-13 -66 -32 -33 -19 -66 -32 -72 -28 -6 4 -7 1 -2 -7 6 -10 4 -12 -8 -7 -9 3
-18 -1 -21 -10 -4 -8 -13 -13 -20 -10 -8 3 -17 -1 -20 -9 -3 -9 -10 -12 -16
-9 -5 3 -10 2 -10 -4 0 -9 -40 -27 -49 -22 -2 2 -7 -1 -10 -6 -3 -4 -28 -19
-56 -33 -27 -14 -57 -30 -65 -37 -8 -6 -24 -13 -35 -15 -11 -1 -25 -9 -30 -16
-6 -7 -20 -14 -32 -15 -12 0 -20 -4 -18 -7 1 -3 -12 -12 -31 -21 -19 -9 -31
-11 -28 -5 3 6 0 4 -8 -5 -13 -16 -56 -35 -71 -31 -5 1 -6 -2 -2 -8 6 -9 -7
-14 -27 -11 -5 0 -8 -3 -8 -8 0 -9 -79 -46 -92 -43 -5 1 -8 -2 -8 -7 0 -10
-39 -27 -52 -23 -5 1 -8 -2 -8 -7 0 -10 -39 -27 -53 -23 -5 1 -6 -2 -2 -8 5
-9 -15 -15 -38 -11 -5 1 -6 -3 -3 -8 6 -8 -40 -26 -57 -22 -5 1 -6 -3 -3 -8 6
-8 -40 -26 -57 -22 -5 1 -6 -3 -2 -9 5 -9 -15 -15 -38 -11 -5 1 -6 -3 -3 -8 5
-8 -23 -23 -44 -24 -3 0 -11 -7 -18 -14 -8 -7 -18 -11 -23 -8 -5 4 -9 1 -9 -5
0 -6 -4 -8 -10 -5 -5 3 -10 2 -10 -3 0 -9 -94 -56 -114 -58 -15 0 -89 36 -97
48 -3 5 -9 9 -13 8 -12 -4 -66 22 -66 31 0 5 -3 8 -7 7 -15 -4 -53 13 -53 23
0 6 -4 8 -9 4 -5 -3 -15 0 -23 7 -7 7 -20 14 -28 16 -8 2 -18 8 -21 14 -4 6
-12 7 -18 4 -6 -4 -14 0 -17 8 -3 9 -10 13 -15 10 -5 -3 -9 0 -9 6 0 6 -5 8
-10 5 -5 -3 -10 -1 -10 5 0 6 -5 8 -10 5 -5 -3 -10 -1 -10 5 0 6 -5 8 -10 5
-5 -3 -10 -1 -10 5 0 6 -4 8 -10 5 -5 -3 -10 -1 -10 4 0 6 -3 10 -7 9 -15 -4
-53 14 -53 24 0 6 -3 8 -6 5 -4 -4 -20 3 -37 15 -18 13 -27 16 -22 7 4 -7 -4
-3 -20 11 -16 14 -25 19 -21 12 7 -11 4 -11 -13 0 -12 7 -21 16 -21 21 0 4 -4
6 -9 2 -5 -3 -17 3 -27 12 -10 10 -18 16 -18 14 -2 -9 -46 11 -46 20 0 6 -4 8
-9 4 -5 -3 -17 2 -25 11 -9 8 -16 13 -16 9 0 -3 -10 0 -23 7 -12 7 -26 12 -30
13 -4 0 -11 5 -15 10 -4 6 -11 10 -17 11 -29 3 -54 18 -54 32 0 10 -1 318 -2
686 l-2 670 469 233 c258 128 474 233 480 233 6 0 78 -34 160 -76 468 -240
596 -305 859 -439 160 -81 355 -181 433 -221 79 -41 147 -74 150 -74 4 0 8
109 9 243 1 133 3 331 5 441 l3 199 -35 16 c-19 9 -38 20 -41 24 -3 5 -9 8
-13 7 -15 -4 -66 20 -66 31 0 6 -6 9 -14 6 -8 -3 -31 5 -51 19 -20 13 -33 19
-30 13 8 -13 -37 12 -47 26 -4 6 -8 6 -8 2 0 -4 -10 -2 -22 5 -13 6 -29 13
-37 14 -8 2 -17 8 -21 14 -4 7 -10 11 -14 11 -3 -1 -7 -1 -8 0 -2 0 -12 2 -23
4 -11 2 -21 8 -23 14 -2 5 -10 7 -18 4 -7 -3 -17 2 -20 11 -3 9 -10 14 -14 11
-5 -3 -24 3 -43 14 -19 11 -38 17 -41 14 -3 -4 -6 -1 -6 6 0 7 -4 9 -10 6 -5
-3 -10 -1 -10 6 0 7 -3 9 -7 6 -3 -4 -15 1 -26 10 -11 10 -17 12 -13 6 5 -9 2
-11 -8 -7 -9 3 -16 10 -16 16 0 5 -4 6 -10 3 -5 -3 -10 -1 -10 5 0 6 -4 9 -9
6 -13 -8 -42 4 -35 15 3 5 -2 6 -10 3 -9 -3 -16 -1 -16 6 0 6 -4 9 -9 5 -5 -3
-12 -1 -16 5 -4 6 -11 8 -16 5 -5 -4 -9 -1 -9 4 0 6 -3 10 -7 9 -5 -1 -26 7
-48 17 -22 10 -43 17 -47 17 -5 -1 -8 2 -8 6 0 4 -10 8 -21 9 -12 1 -29 9 -38
17 -9 8 -20 15 -26 16 -5 2 -21 7 -35 13 -14 6 -28 10 -32 9 -5 -1 -8 3 -8 9
0 5 -4 7 -10 4 -5 -3 -10 -1 -10 5 0 6 -4 9 -9 6 -14 -9 -42 5 -34 17 3 5 2 7
-4 4 -5 -3 -22 1 -37 9 -16 7 -35 14 -43 14 -8 0 -11 4 -8 10 3 6 -1 7 -9 4
-9 -3 -16 -1 -16 6 0 6 -4 8 -10 5 -5 -3 -10 -1 -10 5 0 6 -4 8 -10 5 -5 -3
-10 -1 -10 5 0 6 -6 10 -12 9 -18 -2 -58 12 -58 20 0 4 -10 8 -22 8 -13 1 -24
7 -26 13 -2 5 -8 8 -13 4 -5 -3 -9 0 -9 7 0 7 -3 9 -7 6 -3 -4 -15 1 -26 10
-11 10 -17 12 -12 4 6 -10 2 -10 -16 2 -13 8 -37 18 -52 21 -15 4 -26 10 -23
14 8 13 -44 9 -65 -6z"/>
</g>
</svg>
